{
  "accessors": [
    {
      "bufferView": 2,
      "componentType": 5126,
      "count": 4058,
      "max": [
        0.3615099787712097,
        0.21904504299163818,
        0.36150988936424255
      ],
      "min": [
        -0.36150985956192017,
        -0.1726895570755005,
        -0.36150988936424255
      ],
      "type": "VEC3"
    },
    {
      "bufferView": 2,
      "byteOffset": 48696,
      "componentType": 5126,
      "count": 4058,
      "max": [
        0.9951047301292419,
        1.0,
        0.9951052665710449
      ],
      "min": [
        -0.9951056838035583,
        -1.0,
        -0.9951052665710449
      ],
      "type": "VEC3"
    },
    {
      "bufferView": 1,
      "componentType": 5126,
      "count": 4058,
      "max": [
        0.9655382633209229,
        0.9858031272888184
      ],
      "min": [
        0.09380398690700531,
        0.15240883827209473
      ],
      "type": "VEC2"
    },
    {
      "bufferView": 0,
      "componentType": 5125,
      "count": 6162,
      "type": "SCALAR"
    }
  ],
  "asset": {
    "extras": {
      "author": "Jacobs Development (https://sketchfab.com/Jacobs_Development)",
      "license": "CC-BY-4.0 (http://creativecommons.org/licenses/by/4.0/)",
      "source": "https://sketchfab.com/3d-models/ufo-low-poly-0fcfc381e84347fe834da4086883c9af",
      "title": "UFO Low Poly"
    },
    "generator": "Sketchfab-14.60.0",
    "version": "2.0"
  },
  "bufferViews": [
    {
      "buffer": 0,
      "byteLength": 24648,
      "name": "floatBufferViews",
      "target": 34963
    },
    {
      "buffer": 0,
      "byteLength": 32464,
      "byteOffset": 24648,
      "byteStride": 8,
      "name": "floatBufferViews",
      "target": 34962
    },
    {
      "buffer": 0,
      "byteLength": 97392,
      "byteOffset": 57112,
      "byteStride": 12,
      "name": "floatBufferViews",
      "target": 34962
    }
  ],
  "buffers": [
    {
      "byteLength": 154504,
      "uri": "scene.bin"
    }
  ],
  "images": [
    {
      "uri": "textures/material_baseColor.png"
    }
  ],
  "materials": [
    {
      "doubleSided": true,
      "name": "material",
      "pbrMetallicRoughness": {
        "baseColorTexture": {
          "index": 0
        },
        "metallicFactor": 0.0,
        "roughnessFactor": 0.1788854381999832
      }
    }
  ],
  "meshes": [
    {
      "name": "UFO 2_UFO_0",
      "primitives": [
        {
          "attributes": {
            "NORMAL": 1,
            "POSITION": 0,
            "TEXCOORD_0": 2
          },
          "indices": 3,
          "material": 0,
          "mode": 4
        }
      ]
    }
  ],
  "nodes": [
    {
      "children": [
        1
      ],
      "matrix": [
        1.0,
        0.0,
        0.0,
        0.0,
        0.0,
        2.220446049250313e-16,
        -1.0,
        0.0,
        0.0,
        1.0,
        2.220446049250313e-16,
        0.0,
        0.0,
        0.0,
        0.0,
        1.0
      ],
      "name": "Sketchfab_model"
    },
    {
      "children": [
        2
      ],
      "matrix": [
        0.009999999776482582,
        0.0,
        0.0,
        0.0,
        0.0,
        0.0,
        0.009999999776482582,
        0.0,
        0.0,
        -0.009999999776482582,
        0.0,
        0.0,
        0.0,
        0.0,
        0.0,
        1.0
      ],
      "name": "UFO.fbx"
    },
    {
      "children": [
        3
      ],
      "name": "RootNode"
    },
    {
      "children": [
        4
      ],
      "matrix": [
        299.9999999999997,
        -4.27652968138379e-20,
        -1.3138363996745284e-05,
        0.0,
        5.742961728795279e-13,
        299.9999999999997,
        1.3113416486021363e-05,
        0.0,
        1.3138363996745272e-05,
        -1.3113416486021375e-05,
        299.99999999999943,
        0.0,
        0.0,
        0.0,
        3.8870937714818865e-05,
        1.0
      ],
      "name": "UFO 2"
    },
    {
      "mesh": 0,
      "name": "UFO 2_UFO_0"
    }
  ],
  "samplers": [
    {
      "magFilter": 9729,
      "minFilter": 9987,
      "wrapS": 10497,
      "wrapT": 10497
    }
  ],
  "scene": 0,
  "scenes": [
    {
      "name": "Sketchfab_Scene",
      "nodes": [
        0
      ]
    }
  ],
  "textures": [
    {
      "sampler": 0,
      "source": 0
    }
  ]
}
